<svg width="36" height="36" viewBox="0 0 36 36" fill="none" xmlns="http://www.w3.org/2000/svg">
<path fill-rule="evenodd" clip-rule="evenodd" d="M29.7771 0H6.22252C2.79127 0 0 2.79127 0 6.22281V29.7774C0 33.2087 2.79127 36 6.22252 36H29.7771C33.2083 36 35.9999 33.2087 35.9999 29.7775V6.22281C35.9999 2.79127 33.2084 0 29.7771 0Z" fill="#1F1F2B"/>
<path fill-rule="evenodd" clip-rule="evenodd" d="M19.8733 35.9996H29.7771C33.2084 35.9996 36 33.2083 36 29.7771V19.873L26.8405 10.7135C24.7366 8.16535 21.5547 6.53867 17.9999 6.53867C11.6801 6.53867 6.539 11.6798 6.539 17.9996C6.539 21.5544 8.16568 24.7364 10.7138 26.8402L19.8733 35.9996Z" fill="black"/>
<path fill-rule="evenodd" clip-rule="evenodd" d="M17.9999 27.6323C12.6883 27.6323 8.36691 23.3109 8.36691 17.9996C8.36691 12.6882 12.6883 8.36679 17.9999 8.36679C23.3113 8.36679 27.6327 12.6882 27.6327 17.9996C27.6327 23.3109 23.3113 27.6323 17.9999 27.6323ZM29.4609 17.9996C29.4609 11.6797 24.3195 6.53867 18 6.53867C11.6802 6.53867 6.53906 11.6798 6.53906 17.9996C6.53906 24.3193 11.6802 29.4604 18 29.4604H28.5468C29.0514 29.4604 29.4609 29.0513 29.4609 28.5464C29.4609 28.0417 29.0514 27.6323 28.5468 27.6323H24.2029C27.3641 25.5898 29.4609 22.0347 29.4609 17.9996Z" fill="#FEFEFE"/>
<path fill-rule="evenodd" clip-rule="evenodd" d="M13.0554 19.4177C12.2729 19.4177 11.6366 18.7815 11.6366 17.9996C11.6366 17.2176 12.2729 16.5808 13.0554 16.5808C13.8373 16.5808 14.4738 17.2176 14.4738 17.9996C14.4738 18.7815 13.8373 19.4177 13.0554 19.4177ZM16.3017 17.9996C16.3017 16.2095 14.8457 14.7527 13.0554 14.7527C11.2653 14.7527 9.80847 16.2095 9.80847 17.9996C9.80847 19.7897 11.2653 21.2459 13.0554 21.2459C14.8457 21.2459 16.3017 19.7897 16.3017 17.9996ZM22.9443 19.4177C22.1624 19.4177 21.5262 18.7815 21.5262 17.9996C21.5262 17.2176 22.1624 16.5808 22.9443 16.5808C23.7268 16.5808 24.3634 17.2176 24.3634 17.9996C24.3633 18.7815 23.7268 19.4177 22.9443 19.4177ZM22.9443 14.7527C21.1542 14.7527 19.698 16.2095 19.698 17.9996C19.698 19.7897 21.1542 21.2459 22.9443 21.2459C24.7344 21.2459 26.1912 19.7897 26.1912 17.9996C26.1912 16.2096 24.7344 14.7527 22.9443 14.7527Z" fill="#FEFEFE"/>
<path fill-rule="evenodd" clip-rule="evenodd" d="M17.9999 11.6362C18.7824 11.6362 19.4186 12.2728 19.4186 13.0553C19.4186 13.8372 18.7824 14.4734 17.9999 14.4734C17.218 14.4734 16.5815 13.8372 16.5815 13.0553C16.5815 12.2728 17.218 11.6362 17.9999 11.6362ZM17.9999 16.3016C19.79 16.3016 21.2468 14.8454 21.2468 13.0553C21.2468 11.2652 19.79 9.80809 17.9999 9.80809C16.2095 9.80809 14.7533 11.2652 14.7533 13.0553C14.7533 14.8454 16.2095 16.3016 17.9999 16.3016ZM17.9999 24.3629C17.218 24.3629 16.5815 23.7268 16.5815 22.944C16.5815 22.162 17.218 21.5258 17.9999 21.5258C18.7824 21.5258 19.4186 22.162 19.4186 22.944C19.4187 23.7268 18.7825 24.3629 17.9999 24.3629ZM17.9999 19.6976C16.2095 19.6976 14.7533 21.1539 14.7533 22.944C14.7533 24.7341 16.2095 26.1911 17.9999 26.1911C19.79 26.1911 21.2468 24.7341 21.2468 22.944C21.2468 21.1539 19.79 19.6976 17.9999 19.6976Z" fill="#FEFEFE"/>
</svg>
